<svg width="80" height="80" viewBox="0 0 80 80" fill="none" xmlns="http://www.w3.org/2000/svg" style="">
<g id="noto-v1:3rd-place-medal" clip-path="url(#clip0_4818_695)">
<g id="Clip path group">
<mask id="mask0_4818_695" style="mask-type:luminance" maskUnits="userSpaceOnUse" x="0" y="0" width="80" height="80">
<g id="notoV13rdPlaceMedal1">
<path id="Vector" d="M0 0H80V80H0V0Z" fill="white"/>
</g>
</mask>
<g mask="url(#mask0_4818_695)">
<g id="Group">
<path id="Vector_2" d="M31.3374 38.6562H47.3312L67.3249 0H51.3312L31.3374 38.6562Z" fill="#006CA2"/>
<path id="Vector_3" d="M41.3312 19.325L33.3374 34.7937L35.3374 38.6562H47.3312L49.3312 34.7937L41.3312 19.325Z" fill="#2F2F2F"/>
<path id="Vector_4" d="M48.6061 47.9875H32.6123V38.6562H48.6061V47.9875ZM48.6061 34.6562H32.6123C31.5514 34.6562 30.534 35.0777 29.7839 35.8278C29.0337 36.578 28.6123 37.5954 28.6123 38.6562V47.9875C28.6123 50.2 30.3998 51.9875 32.6123 51.9875H48.6061C50.8186 51.9875 52.6061 50.2 52.6061 47.9875V38.6562C52.6061 36.4437 50.8186 34.6562 48.6061 34.6562Z" fill="#F79329"/>
<path id="Vector_5" d="M60.6062 59.9813C60.6062 71.025 51.6562 79.975 40.6124 79.975C29.5687 79.975 20.6187 71.025 20.6187 59.9813C20.6187 48.9375 29.5687 39.9875 40.6124 39.9875C51.6562 39.9875 60.6062 48.9438 60.6062 59.9813Z" fill="#F79329"/>
<path id="Vector_6" d="M27.206 55.1188C26.9435 55.1188 26.681 55.0688 26.431 54.9563C25.4685 54.5438 25.006 53.425 25.381 52.45C25.3872 52.4313 25.3935 52.4188 25.3997 52.4063C25.406 52.375 25.406 52.3813 25.4247 52.3563C26.2998 50.2774 27.6558 48.4359 29.3812 46.9832C31.1066 45.5305 33.1522 44.5081 35.3497 44C35.5685 43.95 35.7997 44.0563 35.8997 44.2625C35.9997 44.4688 35.9435 44.7188 35.7622 44.8625C32.8435 47.1813 30.5122 50.3125 29.0185 53.9063C29.0185 53.9125 29.0122 53.9188 29.0122 53.9188C29.0122 53.925 29.0122 53.925 29.006 53.9313C28.7997 54.4125 28.4185 54.7875 27.931 54.975C27.6997 55.075 27.4497 55.1188 27.206 55.1188Z" fill="white"/>
<path id="Vector_7" d="M48.6623 38.6562H32.6686L12.6748 0H28.6686L48.6623 38.6562Z" fill="#006CA2"/>
<path id="Vector_8" d="M40.4375 69.9062H40.5375C41.6687 69.8875 43.8125 69.6375 45.45 68.1688C46.8125 66.9438 47.4438 65.2688 47.1875 63.5688C46.9438 61.9875 45.95 60.6437 44.4312 59.8125C45.8875 58.7187 46.7625 57.35 46.9125 55.925C47.0625 54.5438 46.5187 53.1688 45.35 51.9438C44.175 50.7125 42.5875 50.0625 40.7688 50.0625C37.9625 50.0625 35.3813 51.5438 34.6 52.6188C34.5313 52.7063 34.5312 52.8313 34.5937 52.9313L36.3375 55.45C36.3812 55.5125 36.4438 55.5563 36.5188 55.5625C36.5875 55.575 36.6687 55.5562 36.725 55.5062C36.7437 55.4937 38.6375 53.9375 40.2563 53.9375C40.9938 53.9375 41.5375 54.2625 41.925 54.925C42.2438 55.4812 42.3062 55.9875 42.1125 56.475C41.5812 57.7875 39.3313 58.4563 39.3125 58.4625C39.2 58.4938 39.1187 58.6 39.1187 58.7187V60.9375C39.1187 61.0625 39.2 61.1688 39.325 61.1938C39.35 61.2 41.4875 61.7313 41.975 62.9563C42.1688 63.4375 42.0687 63.9813 41.6875 64.575C41.2812 65.2 40.6687 65.5188 39.8625 65.5188C38.3 65.5188 36.3875 64.3312 35.55 63.5875C35.522 63.5627 35.4894 63.5438 35.4539 63.532C35.4185 63.5202 35.381 63.5157 35.3437 63.5187C35.2625 63.525 35.2 63.5687 35.1562 63.6312L33.4125 66.15C33.3437 66.25 33.35 66.3813 33.4313 66.475C33.5375 66.6188 36.3875 69.9062 40.4375 69.9062Z" fill="#AE3D09"/>
</g>
</g>
</g>
</g>
<defs>
<clipPath id="clip0_4818_695">
<rect width="80" height="80" fill="white"/>
</clipPath>
</defs>
</svg>
