<svg width="80" height="80" viewBox="0 0 80 80" fill="none" xmlns="http://www.w3.org/2000/svg">
<g id="noto-v1:2nd-place-medal" clip-path="url(#clip0_4818_682)">
<g id="Clip path group">
<mask id="mask0_4818_682" style="mask-type:luminance" maskUnits="userSpaceOnUse" x="0" y="0" width="80" height="80">
<g id="notoV12ndPlaceMedal1">
<path id="Vector" d="M0 0H80V80H0V0Z" fill="white"/>
</g>
</mask>
<g mask="url(#mask0_4818_682)">
<g id="Group">
<path id="Vector_2" d="M30.8438 38.625H46.825L66.8063 0H50.825L30.8438 38.625Z" fill="#006CA2"/>
<path id="Vector_3" d="M40.8313 19.3125L32.8438 34.7625L34.8438 38.625H46.825L48.825 34.7625L40.8313 19.3125Z" fill="#2F2F2F"/>
<path id="Vector_4" d="M48.1063 47.95H32.1187V38.625H48.1V47.95H48.1063ZM48.1063 34.6313H32.1187C29.9125 34.6313 28.125 36.4187 28.125 38.625V47.95C28.125 50.1563 29.9125 51.9438 32.1187 51.9438H48.1C50.3062 51.9438 52.0937 50.1563 52.0937 47.95V38.625C52.0951 38.1007 51.9929 37.5813 51.793 37.0965C51.5932 36.6118 51.2996 36.1713 50.9292 35.8003C50.5587 35.4292 50.1186 35.135 49.6342 34.9344C49.1498 34.7338 48.6306 34.6308 48.1063 34.6313Z" fill="#CECED2"/>
<path id="Vector_5" d="M60.0938 59.9375C60.0938 70.975 51.1501 79.9188 40.1126 79.9188C29.0813 79.9188 20.1313 70.975 20.1313 59.9375C20.1313 48.9 29.0751 39.9562 40.1126 39.9562C51.1501 39.9562 60.0938 48.9063 60.0938 59.9375Z" fill="#CECED2"/>
<path id="Vector_6" d="M26.7192 55.075C26.4567 55.075 26.1942 55.025 25.9442 54.9125C24.9817 54.5 24.5192 53.3812 24.8942 52.4062C24.9004 52.3937 24.9067 52.375 24.9067 52.3625C24.9129 52.3312 24.9129 52.3375 24.9317 52.3125C25.8057 50.2347 27.1607 48.3942 28.8851 46.9426C30.6095 45.4909 32.6541 44.4695 34.8504 43.9625C35.0692 43.9125 35.3004 44.0188 35.4004 44.225C35.5004 44.4313 35.4442 44.675 35.2629 44.8187C32.3442 47.1375 30.0129 50.2625 28.5254 53.8562C28.5254 53.8625 28.5192 53.8688 28.5192 53.8688C28.5192 53.875 28.5192 53.875 28.5129 53.8812C28.3067 54.3625 27.9254 54.7312 27.4379 54.925C27.2129 55.0312 26.9629 55.075 26.7192 55.075Z" fill="white"/>
<path id="Vector_7" d="M48.1627 38.625H32.1752L12.2002 0H28.1814L48.1627 38.625Z" fill="#006CA2"/>
<path id="Vector_8" d="M46.0377 64.925H39.3314C40.3877 64.2812 42.2314 63 44.3314 60.9C46.3002 58.9375 46.9564 55.3563 44.6064 53C43.2439 51.6438 41.6939 50.95 40.0002 50.95C36.2564 50.95 33.1314 54.2625 33.0002 54.4C32.9189 54.4875 32.9002 54.625 32.9689 54.7312L34.6564 57.4875C34.7002 57.5563 34.7752 57.6062 34.8564 57.6125C34.9377 57.625 35.0189 57.6 35.0814 57.5375C35.1002 57.5187 37.1377 55.6313 38.9252 55.6313C39.6439 55.6313 40.2064 55.9312 40.6439 56.5562C41.0002 57.0625 41.1064 57.625 40.9689 58.2625C40.2877 61.3125 34.2689 64.7625 34.2064 64.8C34.1651 64.8245 34.1308 64.8593 34.1067 64.9008C34.0827 64.9424 34.0697 64.9895 34.0689 65.0375V68.6438C34.0689 68.8 34.1939 68.9187 34.3439 68.9187H46.0439C46.1939 68.9187 46.3189 68.7938 46.3189 68.6438V65.1937C46.3156 65.1214 46.2845 65.0531 46.2321 65.0031C46.1797 64.953 46.1101 64.9251 46.0377 64.925Z" fill="#77A2AD"/>
</g>
</g>
</g>
</g>
<defs>
<clipPath id="clip0_4818_682">
<rect width="80" height="80" fill="white"/>
</clipPath>
</defs>
</svg>
