<svg width="80" height="80" viewBox="0 0 80 80" fill="none" xmlns="http://www.w3.org/2000/svg">
<g id="noto-v1:1st-place-medal" clip-path="url(#clip0_4818_627)">
<g id="Clip path group">
<mask id="mask0_4818_627" style="mask-type:luminance" maskUnits="userSpaceOnUse" x="0" y="0" width="80" height="80">
<g id="notoV11stPlaceMedal1">
<path id="Vector" d="M0 0H80V80H0V0Z" fill="white"/>
</g>
</mask>
<g mask="url(#mask0_4818_627)">
<g id="Group">
<path id="Vector_2" d="M30.5435 38.6375H46.531L66.5185 0H50.531L30.5435 38.6375Z" fill="#006CA2"/>
<path id="Vector_3" d="M40.5372 19.3188L32.5435 34.775L34.5435 38.6375H46.531L48.531 34.775L40.5372 19.3188Z" fill="#2F2F2F"/>
<path id="Vector_4" d="M47.8122 47.9687H31.8247V38.6375H47.8122V47.9687ZM47.8122 34.6437H31.8247C30.7638 34.6437 29.7464 35.0652 28.9963 35.8153C28.2461 36.5655 27.8247 37.5829 27.8247 38.6438V47.9687C27.8247 49.0296 28.2461 50.047 28.9963 50.7972C29.7464 51.5473 30.7638 51.9687 31.8247 51.9688H47.8122C50.0185 51.9688 51.806 50.1812 51.806 47.9687V38.6375C51.806 36.4312 50.0185 34.6437 47.8122 34.6437Z" fill="#FCC21B"/>
<path id="Vector_5" d="M59.7997 59.9562C59.7997 70.9937 50.8497 79.9438 39.8122 79.9438C28.7747 79.9438 19.8247 71 19.8247 59.9562C19.8247 48.9125 28.7747 39.9688 39.8122 39.9688C50.856 39.9688 59.7997 48.9187 59.7997 59.9562Z" fill="#FCC21B"/>
<path id="Vector_6" d="M26.4184 55.0938C26.1559 55.0938 25.8934 55.0437 25.6434 54.9312C24.6809 54.5187 24.2184 53.4 24.5934 52.4312C24.5996 52.4187 24.6059 52.4 24.6059 52.3875C24.6121 52.3562 24.6184 52.3625 24.6309 52.3375C26.3996 48.125 30.1059 45.0125 34.5559 43.9813C34.7746 43.9313 35.0059 44.0375 35.1059 44.2437C35.2059 44.45 35.1496 44.7 34.9684 44.8437C32.0496 47.1625 29.7184 50.2875 28.2309 53.8875C28.2309 53.8938 28.2246 53.9 28.2246 53.9C28.2246 53.9 28.2246 53.9062 28.2184 53.9062C28.0121 54.3875 27.6309 54.7625 27.1434 54.95C26.9121 55.05 26.6621 55.0938 26.4184 55.0938Z" fill="white"/>
<path id="Vector_7" d="M47.8686 38.6375H31.8748L11.8936 0H27.8811L47.8686 38.6375Z" fill="#006CA2"/>
<path id="Vector_8" d="M35.9373 55.8813L37.7936 55.35V65.5438H36.3623C36.2061 65.5438 36.0873 65.6687 36.0873 65.8187V69.3062C36.0873 69.4562 36.2061 69.5813 36.3623 69.5813H43.7686C43.9186 69.5813 44.0436 69.4562 44.0436 69.3062V65.8187C44.0436 65.6687 43.9186 65.5438 43.7686 65.5438H42.3373V50.6125C42.3373 50.5313 42.2998 50.45 42.2311 50.4C42.1991 50.3741 42.1617 50.3556 42.1217 50.3459C42.0818 50.3362 42.0401 50.3354 41.9998 50.3438L35.7998 51.675C35.6748 51.7063 35.5811 51.8125 35.5811 51.9438V55.6187C35.5811 55.7 35.6186 55.7875 35.6873 55.8375C35.7686 55.8875 35.8561 55.9 35.9373 55.8813Z" fill="#F79329"/>
</g>
</g>
</g>
</g>
<defs>
<clipPath id="clip0_4818_627">
<rect width="80" height="80" fill="white"/>
</clipPath>
</defs>
</svg>
